<?xml version="1.0" encoding="iso-8859-1"?>
<!-- Generator: Adobe Illustrator 19.0.0, SVG Export Plug-In . SVG Version: 6.00 Build 0)  -->
<svg version="1.1" id="Capa_1" xmlns="http://www.w3.org/2000/svg" xmlns:xlink="http://www.w3.org/1999/xlink" x="0px" y="0px"
	 viewBox="0 0 400.896 400.896" style="enable-background:new 0 0 400.896 400.896;" xml:space="preserve">
<g>
	<g>
		<path d="M391.328,82.944h-112.64l-26.624-79.36c-0.512-1.536-1.536-2.56-2.56-3.072S246.944,0,245.408,0L12.448,78.848
			c-1.536,0.512-2.56,1.536-3.072,2.56c-0.512,1.024-0.512,2.56-0.512,4.096l5.12,15.36l-6.656,2.048
			c-2.56,1.024-4.096,3.584-3.072,6.656c0.512,2.048,2.56,3.584,4.608,3.584c0.512,0,1.024,0,1.536-0.512l6.656-2.048l5.12,14.848
			l-6.656,1.536c-2.56,1.024-4.096,3.584-3.072,6.656c0.512,2.048,2.56,3.584,4.608,3.584c0.512,0,1.024,0,1.536-0.512l6.656-2.048
			l5.12,14.848l-6.656,2.048c-2.56,1.024-4.096,3.584-3.072,6.656c0.512,2.048,2.56,3.584,4.608,3.584c0.512,0,1.024,0,1.536-0.512
			l6.656-2.048l5.12,14.848l-6.656,2.048c-2.56,1.024-4.096,3.584-3.072,6.656c0.512,2.048,2.56,3.584,4.608,3.584
			c0.512,0,1.024,0,1.536-0.512l6.656-2.048l5.12,14.848l-6.656,2.048c-2.56,1.024-4.096,3.584-3.072,6.656
			c0.512,2.048,2.56,3.584,4.608,3.584c0.512,0,1.024,0,1.536-0.512l6.656-2.048l5.12,14.848l-6.656,2.048
			c-2.56,1.024-4.096,3.584-3.072,6.656c0.512,2.048,2.56,3.584,4.608,3.584c0.512,0,1.024,0,1.536-0.512l6.656-2.048l5.12,14.848
			l-6.656,1.024c-2.56,1.024-4.096,3.584-3.072,6.656c0.512,2.048,2.56,3.584,4.608,3.584c0.512,0,1.024,0,1.536-0.512l6.656-2.048
			l5.12,14.848l-6.656,2.048c-2.56,1.024-4.096,3.584-3.072,6.656c0.512,2.048,2.56,3.584,4.608,3.584c0.512,0,1.024,0,1.536-0.512
			l6.656-2.048l5.12,14.848l-6.656,2.048c-2.56,1.024-4.096,3.584-3.072,6.656c0.512,2.048,2.56,3.584,4.608,3.584
			c0.512,0,1.024,0,1.536-0.512l6.656-2.048l5.12,14.848l-6.656,1.536c-2.56,1.024-4.096,3.584-3.072,6.656
			c0.512,2.048,2.56,3.584,4.608,3.584c0.512,0,1.024,0,1.536-0.512l6.656-2.048l5.12,14.848l-6.656,2.048
			c-2.56,1.024-4.096,3.584-3.072,6.656c0.512,2.048,2.56,3.584,4.608,3.584c0.512,0,1.024,0,1.536-0.512l6.656-2.048l5.12,14.848
			L97.44,371.2c-2.56,1.024-4.096,3.584-3.072,6.656c0.512,2.048,2.56,3.584,4.608,3.584c0.512,0,1.024,0,1.536-0.512l6.656-2.048
			l6.144,18.432c0.512,2.048,2.56,3.584,4.608,3.584c0.512,0,1.024,0,1.536-0.512l233.984-78.848c1.536-0.512,2.56-1.536,3.072-2.56
			c0.512-1.024,0.512-2.56,0.512-4.096l-24.576-73.216h59.392c3.072,0,5.12-2.048,5.12-5.12V88.064
			C396.448,84.992,394.4,82.944,391.328,82.944z M345.248,313.856l-223.744,74.752l-4.608-13.824l6.656-2.048
			c2.56-1.024,4.096-3.584,3.072-6.656c-1.024-2.56-3.584-4.096-6.656-3.072l-6.656,2.048l-5.12-14.848l6.656-2.048
			c2.56-1.024,4.096-3.584,3.072-6.656c-1.024-2.56-3.584-4.096-6.656-3.072l-6.656,2.048l-5.12-14.848l6.656-2.048
			c2.56-1.024,4.096-3.584,3.072-6.656c-1.024-2.56-3.584-4.096-6.656-3.072l-5.12,2.56l-5.12-14.848l6.656-2.048
			c2.56-1.024,4.096-3.584,3.072-6.656c-1.024-2.56-3.584-4.096-6.656-3.072l-6.656,2.048l-5.12-14.848l6.656-2.048
			c2.56-1.024,4.096-3.584,3.072-6.656c-1.024-2.56-3.584-4.096-6.656-3.072l-6.656,2.048l-5.12-14.848l6.656-2.048
			c2.56-1.024,4.096-3.584,3.072-6.656c-1.024-2.56-3.584-4.096-6.656-3.072l-6.656,2.048l-5.12-14.848l6.656-2.048
			c2.56-1.024,4.096-3.584,3.072-6.656c-1.024-2.56-3.584-4.096-6.656-3.072l-6.656,2.048l-5.12-14.848l6.656-2.048
			c2.56-1.024,4.096-3.584,3.072-6.656c-1.024-2.56-3.584-4.096-6.656-3.072l-4.096,3.072l-5.12-14.848l6.656-2.048
			c2.56-1.024,4.096-3.584,3.072-6.656c-1.024-2.56-3.584-4.096-6.656-3.072l-6.656,2.048l-5.12-14.848l6.656-2.048
			c2.56-1.024,4.096-3.584,3.072-6.656c-1.024-2.56-3.584-4.096-6.656-3.072l-6.656,2.048l-5.12-14.848l6.656-2.048
			c2.56-1.024,4.096-3.584,3.072-6.656c-1.024-2.56-3.584-4.096-6.656-3.072l-6.656,2.048l-5.12-14.848l6.656-2.048
			c2.56-1.024,4.096-3.584,3.072-6.656c-1.024-2.56-3.584-4.096-6.656-3.072l-6.656,2.048l-1.024-9.728l223.744-74.752
			l23.552,71.168h-102.4c-3.072,0-5.12,2.048-5.12,5.12v148.992c0,3.072,2.048,5.12,5.12,5.12h155.648L345.248,313.856z
			 M273.056,93.184v138.752h-102.4V93.184H273.056z M386.208,231.936H283.296V93.184h102.912V231.936z"/>
	</g>
</g>
<g>
	<g>
		<path d="M364.704,204.8h-61.952c-3.072,0-5.12,2.048-5.12,5.12c0,3.072,2.56,5.12,5.12,5.12h61.952c3.072,0,5.12-2.048,5.12-5.12
			C369.824,206.848,367.776,204.8,364.704,204.8z"/>
	</g>
</g>
<g>
	<g>
		<path d="M364.704,181.248h-61.952c-3.072,0-5.12,2.048-5.12,5.12c0,2.56,2.56,5.12,5.12,5.12h61.952c3.072,0,5.12-2.048,5.12-5.12
			C369.824,183.296,367.776,181.248,364.704,181.248z"/>
	</g>
</g>
<g>
	<g>
		<path d="M364.704,157.184h-61.952c-3.072,0-5.12,2.048-5.12,5.12c0,2.56,2.56,5.12,5.12,5.12h61.952c3.072,0,5.12-2.048,5.12-5.12
			C369.824,159.232,367.776,157.184,364.704,157.184z"/>
	</g>
</g>
<g>
	<g>
		<path d="M364.704,133.12h-61.952c-3.072,0-5.12,2.048-5.12,5.12c0,3.072,2.56,5.12,5.12,5.12h61.952c3.072,0,5.12-2.048,5.12-5.12
			C369.824,135.168,367.776,133.12,364.704,133.12z"/>
	</g>
</g>
<g>
	<g>
		<path d="M364.704,109.056h-61.952c-3.072,0-5.12,2.048-5.12,5.12c0,3.072,2.56,5.12,5.12,5.12h61.952
			c3.072,0,5.12-2.048,5.12-5.12C369.824,111.104,367.776,109.056,364.704,109.056z"/>
	</g>
</g>
<g>
	<g>
		<path d="M253.6,204.8h-61.952c-3.072,0-5.12,2.048-5.12,5.12c0,3.072,2.56,5.12,5.12,5.12H253.6c3.072,0,5.12-2.048,5.12-5.12
			C258.72,206.848,256.672,204.8,253.6,204.8z"/>
	</g>
</g>
<g>
	<g>
		<path d="M253.6,109.568h-61.952c-3.072,0-5.12,2.048-5.12,5.12v71.68c0,2.56,2.56,5.12,5.12,5.12H253.6
			c3.072,0,5.12-2.048,5.12-5.12v-71.68C258.72,111.616,256.672,109.568,253.6,109.568z M248.48,180.736h-2.56
			c-1.024-9.728-7.68-17.408-16.384-19.968c5.12-2.56,8.704-7.68,8.704-13.824c0-8.704-6.656-15.36-15.36-15.36
			c-8.704,0-15.36,6.656-15.36,15.36c0,6.144,3.584,11.264,8.704,13.824c-8.704,2.56-15.36,10.752-16.384,19.968h-2.56v-61.44h51.2
			V180.736z"/>
	</g>
</g>
<g>
</g>
<g>
</g>
<g>
</g>
<g>
</g>
<g>
</g>
<g>
</g>
<g>
</g>
<g>
</g>
<g>
</g>
<g>
</g>
<g>
</g>
<g>
</g>
<g>
</g>
<g>
</g>
<g>
</g>
</svg>
